<?xml version="1.0" encoding="utf-8"?>
<!-- Generator: Adobe Illustrator 15.1.0, SVG Export Plug-In . SVG Version: 6.00 Build 0)  -->
<!DOCTYPE svg PUBLIC "-//W3C//DTD SVG 1.1//EN" "http://www.w3.org/Graphics/SVG/1.1/DTD/svg11.dtd">
<svg version="1.1" id="圖層_1" xmlns="http://www.w3.org/2000/svg" xmlns:xlink="http://www.w3.org/1999/xlink" x="0px" y="0px"
	 width="760.729px" height="768.654px" viewBox="0 0 760.729 768.654" enable-background="new 0 0 760.729 768.654"
	 xml:space="preserve">
<g>
	<g>
		<g>
			<g>
				<path fill="#171C61" d="M0,361.313l141.812,50.96v28.567L0.003,490.514v-32.172l75.406-23.162
					c12.354-3.861,24.193-6.949,36.033-9.523v-0.771c-11.84-2.572-23.423-5.918-35.774-9.521L0.005,392.456L0,361.313z"/>
			</g>
			<g>
				<path fill="#171C61" d="M0,307.385l141.812,50.959v28.566L0.003,436.584v-32.17l75.406-23.164
					c12.354-3.861,24.193-6.949,36.033-9.522v-0.771c-11.84-2.573-23.423-5.919-35.774-9.522L0.005,338.527L0,307.385z"/>
			</g>
		</g>
		<g>
			<g>
				<path fill="#171C61" d="M418,0l-50.959,141.81h-28.568L288.801,0h32.17l23.164,75.408c3.861,12.354,6.949,24.192,9.523,36.032
					h0.771c2.574-11.84,5.92-23.421,9.521-35.774L386.858,0H418z"/>
			</g>
			<g>
				<path fill="#171C61" d="M471.928,0l-50.957,141.81h-28.568L342.729,0h32.173l23.162,75.408
					c3.86,12.354,6.949,24.192,9.521,36.032h0.771c2.574-11.84,5.921-23.421,9.523-35.774L440.787,0H471.928z"/>
			</g>
		</g>
		<g>
			<g>
				<path fill="#171C61" d="M127.041,103.768l97.331,115.035l-14.283,24.74L62.442,215.658l16.088-27.861l76.885,17.645
					c12.629,2.832,24.426,6.078,35.967,9.769l0.385-0.667c-8.967-8.15-17.324-16.837-26.219-26.135l-54.076-57.67L127.041,103.768z"
					/>
			</g>
			<g>
				<path fill="#171C61" d="M154.006,57.064L251.339,172.1l-14.285,24.74L89.407,168.955l16.086-27.861l76.887,17.645
					c12.628,2.832,24.426,6.077,35.965,9.768l0.385-0.667c-8.965-8.149-17.322-16.837-26.22-26.135l-54.073-57.669L154.006,57.064z"
					/>
			</g>
		</g>
		<g>
			<g>
				<path fill="#171C61" d="M649.258,130.738l-54.074,57.67c-8.898,9.298-17.254,17.984-26.221,26.135l0.385,0.667
					c11.541-3.69,23.338-6.937,35.967-9.769l76.885-17.645l16.088,27.861l-147.646,27.885l-14.283-24.74l97.33-115.035
					L649.258,130.738z"/>
			</g>
			<g>
				<path fill="#171C61" d="M622.293,84.035l-54.074,57.669c-8.896,9.298-17.254,17.985-26.221,26.135l0.385,0.667
					c11.541-3.69,23.338-6.936,35.967-9.768l76.887-17.645l16.086,27.861L523.676,196.84l-14.283-24.74l97.33-115.035
					L622.293,84.035z"/>
			</g>
		</g>
		<g>
			<g>
				<path fill="#171C61" d="M386.858,768.654l-22.907-75.665c-3.602-12.353-6.947-23.935-9.521-35.774h-0.771
					c-2.574,11.84-5.662,23.678-9.523,36.031l-23.164,75.408h-32.17l49.672-141.809h28.568L418,768.654H386.858z"/>
			</g>
			<g>
				<path fill="#171C61" d="M440.787,768.654l-22.906-75.665c-3.603-12.353-6.949-23.935-9.523-35.774h-0.771
					c-2.572,11.84-5.661,23.678-9.521,36.031l-23.162,75.408h-32.173l49.673-141.809h28.568l50.957,141.809H440.787z"/>
			</g>
		</g>
		<g>
			<g>
				<path fill="#171C61" d="M111.472,637.918l54.076-57.671c8.895-9.298,17.252-17.985,26.219-26.134l-0.385-0.667
					c-11.541,3.69-23.338,6.934-35.967,9.768L78.53,580.859l-16.088-27.861l147.646-27.887l14.283,24.738l-97.331,115.038
					L111.472,637.918z"/>
			</g>
			<g>
				<path fill="#171C61" d="M138.437,684.621l54.073-57.67c8.897-9.298,17.255-17.986,26.22-26.135l-0.385-0.666
					c-11.539,3.689-23.337,6.934-35.965,9.768l-76.887,17.645l-16.086-27.861l147.646-27.887l14.285,24.739l-97.333,115.038
					L138.437,684.621z"/>
			</g>
		</g>
		<g>
			<g>
				<path fill="#171C61" d="M633.688,664.888l-97.33-115.038l14.283-24.738l147.646,27.887l-16.088,27.861l-76.885-17.646
					c-12.629-2.834-24.426-6.077-35.967-9.768l-0.385,0.667c8.967,8.148,17.322,16.836,26.221,26.134l54.074,57.671L633.688,664.888
					z"/>
			</g>
			<g>
				<path fill="#171C61" d="M606.723,711.592l-97.33-115.038l14.283-24.739l147.646,27.887l-16.086,27.861l-76.887-17.645
					c-12.629-2.834-24.426-6.078-35.967-9.768l-0.385,0.666c8.967,8.148,17.324,16.837,26.221,26.135l54.074,57.67L606.723,711.592z
					"/>
			</g>
		</g>
		<g>
			<g>
				<path fill="#171C61" d="M760.727,392.456l-75.666,22.907c-12.352,3.604-23.934,6.949-35.772,9.521v0.771
					c11.839,2.574,23.679,5.662,36.032,9.523l75.408,23.162v32.172L618.918,440.84v-28.567l141.811-50.96L760.727,392.456z"/>
			</g>
			<g>
				<path fill="#171C61" d="M760.727,338.527l-75.666,22.906c-12.352,3.604-23.934,6.949-35.772,9.522v0.771
					c11.839,2.573,23.679,5.661,36.032,9.522l75.408,23.164v32.17L618.918,386.91v-28.566l141.811-50.959L760.727,338.527z"/>
			</g>
		</g>
	</g>
	<g>
		<g>
			<path fill="#171C61" d="M317.53,283.452l-21.505,70.956h-13.523l-9.143-31.421c-2.189-7.47-3.734-14.294-5.28-22.665h-0.386
				c-1.417,8.499-3.349,15.711-5.538,22.793l-9.658,31.293h-13.521l-20.348-70.956h15.454l7.855,33.997
				c1.675,7.598,3.348,15.196,4.637,22.666h0.257c1.416-7.342,3.606-15.196,5.666-22.537l9.787-34.126h12.234l9.272,33.353
				c2.188,8.242,4.12,15.841,5.536,23.311h0.388c1.158-7.342,2.834-14.938,4.765-23.181l8.243-33.482H317.53z"/>
			<path fill="#171C61" d="M378.689,337.539c0,6.053,0.13,12.233,1.031,16.869h-13.521l-1.03-8.241h-0.386
				c-3.993,5.537-10.947,9.659-19.832,9.659c-13.266,0-20.862-9.787-20.862-20.734c0-17.643,15.323-26.398,39.663-26.398
				c0-5.281,0-15.841-14.295-15.841c-6.311,0-12.748,1.932-17.256,4.894l-3.091-9.916c5.022-3.219,13.394-5.924,22.923-5.924
				c20.862,0,26.656,13.779,26.656,28.847V337.539z M364.139,318.737c-11.719,0-25.241,2.189-25.241,14.81
				c0,7.855,4.894,11.332,10.432,11.332c8.112,0,14.81-6.181,14.81-14.423V318.737z"/>
			<path fill="#171C61" d="M433.157,296.588c-1.287-0.258-2.703-0.387-4.379-0.387c-10.044,0-16.354,8.241-16.354,20.604v37.604
				h-14.938v-49.322c0-8.242-0.129-15.066-0.516-21.634h13.007l0.515,13.006h0.516c3.22-9.015,10.689-14.552,18.415-14.552
				c1.417,0,2.447,0.129,3.734,0.387V296.588z"/>
			<path fill="#171C61" d="M542.099,354.408H527.42v-40.565c0-11.847-3.864-19.702-12.88-19.702
				c-6.825,0-13.778,6.182-13.778,16.484v43.783h-14.681v-42.754c0-9.916-3.735-17.514-12.364-17.514
				c-6.695,0-14.293,6.053-14.293,17.256v43.012h-14.682v-50.996c0-7.984-0.257-13.907-0.516-19.96h12.879l0.772,10.431h0.386
				c3.478-5.924,9.917-11.977,20.732-11.977c9.017,0,15.842,5.022,18.804,13.006h0.257c4.765-7.854,11.719-13.006,21.893-13.006
				c10.56,0,22.149,7.211,22.149,29.619V354.408z"/>
		</g>
		<g>
			<path fill="#171C61" d="M241.104,427.767c-2.833-1.803-7.727-3.992-13.522-3.992c-6.695,0-10.302,3.864-10.302,8.628
				c0,4.895,3.221,7.341,11.848,11.076c11.72,4.765,17.9,11.203,17.9,21.506c0,13.65-10.43,21.764-26.527,21.764
				c-7.47,0-14.553-1.932-19.316-4.766l3.348-11.074c3.604,2.188,10.173,4.765,16.225,4.765c7.985,0,11.849-3.863,11.849-9.272
				s-2.962-8.37-11.462-11.976c-12.619-5.022-18.157-12.106-18.157-20.349c0-11.848,9.658-21.248,24.596-21.248
				c6.955,0,13.007,1.932,16.87,4.121L241.104,427.767z"/>
			<path fill="#171C61" d="M264.537,401.496l14.81-4.636v17.515h16.871v11.203h-16.871v35.928c0,8.758,2.705,13.008,9.015,13.008
				c2.962,0,4.765-0.387,6.568-0.902l0.514,11.463c-2.574,1.029-6.566,1.674-11.59,1.674c-5.924,0-10.945-1.932-14.036-5.41
				c-3.605-3.863-5.28-9.786-5.28-19.059v-36.701h-10.044v-11.203h10.044V401.496z"/>
			<path fill="#171C61" d="M366.783,464.984c0,7.984,0.385,14.68,0.644,20.348h-13.136l-0.773-10.304h-0.387
				c-2.961,4.894-9.914,11.72-21.377,11.72c-12.232,0-22.922-7.598-22.922-30.264v-42.239h14.938v39.792
				c0,12.234,3.478,20.348,13.264,20.348c6.825,0,14.811-5.409,14.811-16.097v-43.913h14.938V464.984z"/>
			<path fill="#171C61" d="M445.199,466.4c0,6.439,0.257,14.037,0.516,18.932h-13.136l-0.772-11.076h-0.387
				c-3.734,7.212-11.461,12.492-21.506,12.492c-16.098,0-28.331-14.295-28.331-36.188c0-24.082,13.78-37.732,29.619-37.732
				c9.143,0,15.712,4.121,18.801,9.53h0.259v-40.308h14.938V466.4z M430.262,443.092c0-11.59-7.34-18.416-15.712-18.416
				c-11.461,0-17.771,11.332-17.771,25.371c0,13.906,6.181,24.596,17.514,24.596c9.658,0,15.969-8.5,15.969-18.416V443.092z"/>
			<path fill="#171C61" d="M471.721,403.428c-5.152,0-8.63-3.863-8.63-8.629c0-5.021,3.606-8.756,8.757-8.756
				c5.152,0,8.63,3.734,8.63,8.756C480.478,399.564,477.13,403.428,471.721,403.428z M479.189,485.332h-14.938v-71.087h14.938
				V485.332z"/>
			<path fill="#171C61" d="M559.545,449.273c0,26.527-17.256,37.475-33.227,37.475c-18.414,0-32.451-13.521-32.451-36.445
				c0-23.953,14.682-37.475,33.482-37.475C546.795,412.828,559.545,427.51,559.545,449.273z M526.834,424.032
				c-12.748,0-17.642,13.651-17.642,25.885c0,13.908,6.567,25.626,17.515,25.626c10.815,0,17.514-11.718,17.514-25.884
				C544.221,437.941,539.326,424.032,526.834,424.032z"/>
		</g>
	</g>
</g>
</svg>
